/* XPM */
static char *XPM_icon[] = {
"3 24 2 1",
"  c None",
"w c #707880",
"   ",
"   ",
"   ",
"   ",
"   ",
" w ",
" w ",
" w ",
" w ",
" w ",
" w ",
" w ",
" w ",
" w ",
" w ",
" w ",
" w ",
" w ",
" w ",
"   ",
"   ",
"   ",
"   ",
"   ",
};
